<?xml version="1.0" standalone="no"?><!DOCTYPE svg PUBLIC "-//W3C//DTD SVG 1.1//EN" "http://www.w3.org/Graphics/SVG/1.1/DTD/svg11.dtd"><svg t="1505434102864" class="icon" style="" viewBox="0 0 1024 1024" version="1.1" xmlns="http://www.w3.org/2000/svg" p-id="1070" xmlns:xlink="http://www.w3.org/1999/xlink" width="64" height="64"><defs><style type="text/css"></style></defs><path d="M512 64C264.533333 64 64 264.533333 64 512c0 247.466667 200.533333 448 448 448s448-200.533333 448-448C960 264.533333 759.466667 64 512 64zM714.666667 684.8c8.533333 8.533333 8.533333 21.333333 0 29.866667-8.533333 8.533333-21.333333 8.533333-29.866667 0L512 541.866667l-172.8 172.8c-8.533333 8.533333-21.333333 8.533333-29.866667 0-8.533333-8.533333-8.533333-21.333333 0-29.866667l172.8-172.8-172.8-172.8c-8.533333-8.533333-8.533333-21.333333 0-29.866667s21.333333-8.533333 29.866667 0l172.8 172.8 172.8-172.8c8.533333-8.533333 21.333333-8.533333 29.866667 0s8.533333 21.333333 0 29.866667L541.866667 512 714.666667 684.8z" p-id="1071"></path></svg>