<?xml version="1.0" standalone="no"?><!DOCTYPE svg PUBLIC "-//W3C//DTD SVG 1.1//EN" "http://www.w3.org/Graphics/SVG/1.1/DTD/svg11.dtd"><svg t="1505841410157" class="icon" style="" viewBox="0 0 1024 1024" version="1.1" xmlns="http://www.w3.org/2000/svg" p-id="8941" xmlns:xlink="http://www.w3.org/1999/xlink" width="64" height="64"><defs><style type="text/css"></style></defs><path d="M511.99693 0.110517c-282.706757 0-511.886413 229.179656-511.886413 511.890506 0 282.70471 229.178633 511.887436 511.886413 511.887436 282.711873 0 511.890506-229.182726 511.890506-511.887436C1023.88846 229.291197 794.709827 0.110517 511.99693 0.110517zM679.963433 242.721067c35.338856 0 63.98529 38.19695 63.98529 85.318154s-28.646434 85.315084-63.98529 85.315084-63.98529-38.193881-63.98529-85.315084S644.624577 242.721067 679.963433 242.721067zM338.705142 242.724137c35.338856 0 63.98529 38.19695 63.98529 85.318154 0 47.118134-28.646434 85.315084-63.98529 85.315084-35.338856 0-63.98529-38.19695-63.98529-85.315084C274.719852 280.921088 303.366286 242.724137 338.705142 242.724137zM509.009899 693.675736c-197.291388 0-258.420631 103.213733-258.420631 103.213733s56.891731-178.308035 258.732739-178.308035c203.037253 0 253.348102 184.40387 253.348102 184.40387S706.301288 693.675736 509.009899 693.675736z" p-id="8942"></path></svg>